<svg width="147" height="16" viewBox="0 0 147 16" fill="none" xmlns="http://www.w3.org/2000/svg">
<path d="M8.87109 12.0558H7.45752V7.12662H2.08154V12.0558H0.675293V1.39176H2.08154V5.97672H7.45752V1.39176H8.87109V12.0558ZM10.7974 8.02018C10.7974 7.24381 10.9487 6.54557 11.2515 5.92545C11.5591 5.30533 11.9839 4.82682 12.5259 4.4899C13.0728 4.15299 13.6953 3.98453 14.3936 3.98453C15.4727 3.98453 16.3442 4.35807 17.0083 5.10514C17.6772 5.85221 18.0117 6.84586 18.0117 8.08609V8.18131C18.0117 8.95279 17.8628 9.64615 17.5649 10.2614C17.272 10.8717 16.8496 11.3478 16.2979 11.6896C15.751 12.0314 15.1211 12.2023 14.4082 12.2023C13.334 12.2023 12.4624 11.8288 11.7935 11.0817C11.1294 10.3346 10.7974 9.34586 10.7974 8.11539V8.02018ZM12.1597 8.18131C12.1597 9.06021 12.3623 9.76578 12.7676 10.298C13.1777 10.8302 13.7246 11.0963 14.4082 11.0963C15.0967 11.0963 15.6436 10.8278 16.0488 10.2907C16.4541 9.74869 16.6567 8.99186 16.6567 8.02018C16.6567 7.15104 16.4492 6.44791 16.0342 5.9108C15.624 5.36881 15.0771 5.09781 14.3936 5.09781C13.7246 5.09781 13.1851 5.36393 12.7749 5.89615C12.3647 6.42838 12.1597 7.1901 12.1597 8.18131ZM26.7275 10.1881L28.251 4.13102H29.606L27.2988 12.0558H26.2002L24.2739 6.04996L22.3989 12.0558H21.3003L19.0005 4.13102H20.3481L21.9082 10.0636L23.7539 4.13102H24.8452L26.7275 10.1881ZM37.8896 11.0963C38.373 11.0963 38.7954 10.9499 39.1567 10.6569C39.5181 10.3639 39.7183 9.99771 39.7573 9.55826H41.0391C41.0146 10.0124 40.8584 10.4445 40.5703 10.8546C40.2822 11.2648 39.8965 11.592 39.4131 11.8361C38.9346 12.0802 38.4268 12.2023 37.8896 12.2023C36.8105 12.2023 35.9512 11.8434 35.3115 11.1256C34.6768 10.403 34.3594 9.41666 34.3594 8.16666V7.93961C34.3594 7.16813 34.501 6.48209 34.7842 5.8815C35.0674 5.28092 35.4727 4.81461 36 4.48258C36.5322 4.15055 37.1597 3.98453 37.8823 3.98453C38.771 3.98453 39.5083 4.25064 40.0942 4.78287C40.6851 5.3151 41 6.00602 41.0391 6.85563H39.7573C39.7183 6.34293 39.5229 5.92301 39.1714 5.59586C38.8247 5.26383 38.395 5.09781 37.8823 5.09781C37.1938 5.09781 36.6592 5.34684 36.2783 5.84488C35.9023 6.33805 35.7144 7.05338 35.7144 7.99088V8.24723C35.7144 9.16031 35.9023 9.86344 36.2783 10.3566C36.6543 10.8498 37.1914 11.0963 37.8896 11.0963ZM47.4551 12.0558C47.377 11.8996 47.3135 11.6213 47.2646 11.2209C46.6348 11.8752 45.8828 12.2023 45.0088 12.2023C44.2275 12.2023 43.5854 11.9826 43.0825 11.5431C42.5845 11.0988 42.3354 10.5373 42.3354 9.85855C42.3354 9.03336 42.6479 8.39371 43.2729 7.93961C43.9028 7.48063 44.7866 7.25113 45.9243 7.25113H47.2427V6.62857C47.2427 6.15494 47.1011 5.77896 46.8179 5.50064C46.5347 5.21744 46.1172 5.07584 45.5654 5.07584C45.082 5.07584 44.6768 5.19791 44.3496 5.44205C44.0225 5.68619 43.8589 5.9816 43.8589 6.32828H42.4966C42.4966 5.93277 42.6357 5.55191 42.9141 5.1857C43.1973 4.81461 43.5781 4.52164 44.0566 4.3068C44.54 4.09195 45.0698 3.98453 45.646 3.98453C46.5591 3.98453 47.2744 4.21402 47.792 4.67301C48.3096 5.12711 48.5781 5.75455 48.5977 6.55533V10.2028C48.5977 10.9303 48.6904 11.5089 48.876 11.9386V12.0558H47.4551ZM45.2065 11.0231C45.6313 11.0231 46.0342 10.9132 46.415 10.6935C46.7959 10.4738 47.0718 10.1881 47.2427 9.83658V8.21061H46.1807C44.5205 8.21061 43.6904 8.69645 43.6904 9.66813C43.6904 10.0929 43.832 10.425 44.1152 10.6642C44.3984 10.9035 44.7622 11.0231 45.2065 11.0231ZM52.0034 4.13102L52.0474 5.12711C52.6528 4.36539 53.4438 3.98453 54.4204 3.98453C56.0952 3.98453 56.9399 4.92936 56.9546 6.819V12.0558H55.5996V6.81168C55.5947 6.24039 55.4629 5.81803 55.2041 5.54459C54.9502 5.27115 54.5522 5.13443 54.0103 5.13443C53.5708 5.13443 53.1851 5.25162 52.853 5.486C52.521 5.72037 52.2622 6.02799 52.0767 6.40885V12.0558H50.7217V4.13102H52.0034ZM69.7354 10.1881L71.2588 4.13102H72.6138L70.3066 12.0558H69.208L67.2817 6.04996L65.4067 12.0558H64.3081L62.0083 4.13102H63.356L64.916 10.0636L66.7617 4.13102H67.853L69.7354 10.1881ZM77.2866 12.2023C76.2124 12.2023 75.3384 11.8507 74.6646 11.1476C73.9907 10.4396 73.6538 9.49479 73.6538 8.31314V8.06412C73.6538 7.27799 73.8027 6.5773 74.1006 5.96207C74.4033 5.34195 74.8232 4.85855 75.3604 4.51188C75.9023 4.16031 76.4883 3.98453 77.1182 3.98453C78.1484 3.98453 78.9492 4.32389 79.5205 5.0026C80.0918 5.68131 80.3774 6.65299 80.3774 7.91764V8.4816H75.0088C75.0283 9.26285 75.2554 9.89518 75.6899 10.3786C76.1294 10.8571 76.686 11.0963 77.3599 11.0963C77.8384 11.0963 78.2437 10.9987 78.5757 10.8034C78.9077 10.6081 79.1982 10.3493 79.4473 10.027L80.2749 10.6715C79.6108 11.6921 78.6147 12.2023 77.2866 12.2023ZM77.1182 5.09781C76.5713 5.09781 76.1123 5.29801 75.7412 5.6984C75.3701 6.09391 75.1406 6.65055 75.0527 7.36832H79.0225V7.26578C78.9834 6.5773 78.7979 6.04508 78.4658 5.6691C78.1338 5.28824 77.6846 5.09781 77.1182 5.09781ZM87.0278 5.09049C87.6284 4.35318 88.4097 3.98453 89.3716 3.98453C91.0464 3.98453 91.8911 4.92936 91.9058 6.819V12.0558H90.5508V6.81168C90.5459 6.24039 90.4141 5.81803 90.1553 5.54459C89.9014 5.27115 89.5034 5.13443 88.9614 5.13443C88.522 5.13443 88.1362 5.25162 87.8042 5.486C87.4722 5.72037 87.2134 6.02799 87.0278 6.40885V12.0558H85.6729V0.80582H87.0278V5.09049ZM97.2231 12.2023C96.1489 12.2023 95.2749 11.8507 94.6011 11.1476C93.9272 10.4396 93.5903 9.49479 93.5903 8.31314V8.06412C93.5903 7.27799 93.7393 6.5773 94.0371 5.96207C94.3398 5.34195 94.7598 4.85855 95.2969 4.51188C95.8389 4.16031 96.4248 3.98453 97.0547 3.98453C98.085 3.98453 98.8857 4.32389 99.457 5.0026C100.028 5.68131 100.314 6.65299 100.314 7.91764V8.4816H94.9453C94.9648 9.26285 95.1919 9.89518 95.6265 10.3786C96.0659 10.8571 96.6226 11.0963 97.2964 11.0963C97.7749 11.0963 98.1802 10.9987 98.5122 10.8034C98.8442 10.6081 99.1348 10.3493 99.3838 10.027L100.211 10.6715C99.5474 11.6921 98.5513 12.2023 97.2231 12.2023ZM97.0547 5.09781C96.5078 5.09781 96.0488 5.29801 95.6777 5.6984C95.3066 6.09391 95.0771 6.65055 94.9893 7.36832H98.959V7.26578C98.9199 6.5773 98.7344 6.04508 98.4023 5.6691C98.0703 5.28824 97.6211 5.09781 97.0547 5.09781ZM103.361 12.0558H102.006V0.80582H103.361V12.0558ZM112.23 8.18131C112.23 9.38736 111.955 10.359 111.403 11.0963C110.851 11.8337 110.104 12.2023 109.162 12.2023C108.2 12.2023 107.443 11.8971 106.891 11.2868V15.1027H105.536V4.13102H106.774L106.84 5.00992C107.392 4.32633 108.158 3.98453 109.14 3.98453C110.092 3.98453 110.844 4.34342 111.396 5.06119C111.952 5.77896 112.23 6.7775 112.23 8.0568V8.18131ZM110.875 8.0275C110.875 7.13395 110.685 6.42838 110.304 5.9108C109.923 5.39322 109.401 5.13443 108.737 5.13443C107.917 5.13443 107.301 5.4982 106.891 6.22574V10.0124C107.296 10.735 107.917 11.0963 108.751 11.0963C109.401 11.0963 109.916 10.84 110.297 10.3273C110.683 9.80973 110.875 9.04313 110.875 8.0275ZM120.272 10.071L122.118 4.13102H123.568L120.382 13.279C119.889 14.5973 119.105 15.2565 118.031 15.2565L117.775 15.2345L117.27 15.1393V14.0407L117.636 14.07C118.095 14.07 118.451 13.9772 118.705 13.7917C118.964 13.6061 119.176 13.2668 119.342 12.7736L119.643 11.9679L116.815 4.13102H118.295L120.272 10.071ZM124.308 8.02018C124.308 7.24381 124.459 6.54557 124.762 5.92545C125.07 5.30533 125.495 4.82682 126.037 4.4899C126.583 4.15299 127.206 3.98453 127.904 3.98453C128.983 3.98453 129.855 4.35807 130.519 5.10514C131.188 5.85221 131.522 6.84586 131.522 8.08609V8.18131C131.522 8.95279 131.374 9.64615 131.076 10.2614C130.783 10.8717 130.36 11.3478 129.809 11.6896C129.262 12.0314 128.632 12.2023 127.919 12.2023C126.845 12.2023 125.973 11.8288 125.304 11.0817C124.64 10.3346 124.308 9.34586 124.308 8.11539V8.02018ZM125.67 8.18131C125.67 9.06021 125.873 9.76578 126.278 10.298C126.688 10.8302 127.235 11.0963 127.919 11.0963C128.607 11.0963 129.154 10.8278 129.56 10.2907C129.965 9.74869 130.167 8.99186 130.167 8.02018C130.167 7.15104 129.96 6.44791 129.545 5.9108C129.135 5.36881 128.588 5.09781 127.904 5.09781C127.235 5.09781 126.696 5.36393 126.286 5.89615C125.875 6.42838 125.67 7.1901 125.67 8.18131ZM138.114 11.2721C137.587 11.8922 136.813 12.2023 135.792 12.2023C134.948 12.2023 134.303 11.9582 133.859 11.4699C133.419 10.9767 133.197 10.2492 133.192 9.28727V4.13102H134.547V9.25064C134.547 10.4518 135.036 11.0524 136.012 11.0524C137.047 11.0524 137.736 10.6667 138.078 9.89518V4.13102H139.433V12.0558H138.144L138.114 11.2721ZM143.087 9.05289C143.097 8.47184 143.163 8.01285 143.285 7.67594C143.407 7.33902 143.656 6.96549 144.032 6.55533L144.992 5.56656C145.402 5.1027 145.607 4.60465 145.607 4.07242C145.607 3.55973 145.473 3.15934 145.204 2.87125C144.936 2.57828 144.545 2.4318 144.032 2.4318C143.534 2.4318 143.134 2.56363 142.831 2.8273C142.528 3.09098 142.377 3.44498 142.377 3.88932H141.022C141.032 3.0983 141.312 2.46109 141.864 1.9777C142.421 1.48941 143.144 1.24527 144.032 1.24527C144.955 1.24527 145.673 1.4943 146.186 1.99234C146.703 2.48551 146.962 3.16422 146.962 4.02848C146.962 4.88297 146.566 5.72525 145.775 6.55533L144.977 7.34635C144.621 7.74186 144.442 8.3107 144.442 9.05289H143.087ZM143.029 11.3747C143.029 11.1549 143.095 10.9718 143.227 10.8254C143.363 10.674 143.563 10.5983 143.827 10.5983C144.091 10.5983 144.291 10.674 144.428 10.8254C144.564 10.9718 144.633 11.1549 144.633 11.3747C144.633 11.5944 144.564 11.7775 144.428 11.924C144.291 12.0656 144.091 12.1364 143.827 12.1364C143.563 12.1364 143.363 12.0656 143.227 11.924C143.095 11.7775 143.029 11.5944 143.029 11.3747Z" fill="#666666"/>
</svg>
